PathFileType	4	(X/Y/Z)	output.trc
DataRate	CameraRate	NumFrames	NumMarkers	Units	OrigDataRate	OrigDataStartFrame	OrigNumFrames
1.0	1.0	134	3	mm	1.0	844	1125
Frame#	Time	Joint1X	Joint1Y	Joint1Z	Joint2X	Joint2Y	Joint2Z	Joint3X	Joint3Y	Joint3Z
										
844	843.00000	-0.08634	1.54193	1.95516	-0.21748	1.29829	1.98770	-0.28198	1.14597	1.82310
845	844.00000	-0.08590	1.54188	1.95676	-0.22243	1.30020	1.98181	-0.28732	1.15727	1.80929
846	845.00000	-0.08545	1.54183	1.95854	-0.22793	1.30261	1.97579	-0.29356	1.17100	1.79543
847	846.00000	-0.08499	1.54166	1.96037	-0.23407	1.30561	1.96989	-0.30046	1.18743	1.78158
848	847.00000	-0.08453	1.54125	1.96206	-0.24093	1.30936	1.96421	-0.30762	1.20641	1.76786
849	848.00000	-0.08414	1.54055	1.96343	-0.24854	1.31404	1.95867	-0.31455	1.22745	1.75441
850	849.00000	-0.08387	1.53957	1.96435	-0.25682	1.31986	1.95301	-0.32082	1.24994	1.74135
851	850.00000	-0.08376	1.53843	1.96482	-0.26563	1.32698	1.94692	-0.32608	1.27326	1.72880
852	851.00000	-0.08386	1.53734	1.96489	-0.27468	1.33543	1.94019	-0.33012	1.29703	1.71689
853	852.00000	-0.08416	1.53658	1.96474	-0.28363	1.34508	1.93284	-0.33287	1.32104	1.70585
854	853.00000	-0.08460	1.53640	1.96455	-0.29205	1.35554	1.92515	-0.33437	1.34523	1.69596
855	854.00000	-0.08514	1.53697	1.96448	-0.29954	1.36626	1.91758	-0.33474	1.36952	1.68756
856	855.00000	-0.08570	1.53832	1.96464	-0.30581	1.37662	1.91062	-0.33415	1.39371	1.68093
857	856.00000	-0.08621	1.54030	1.96504	-0.31073	1.38613	1.90462	-0.33278	1.41751	1.67620
858	857.00000	-0.08663	1.54265	1.96558	-0.31441	1.39459	1.89968	-0.33085	1.44066	1.67332
859	858.00000	-0.08693	1.54503	1.96612	-0.31716	1.40222	1.89562	-0.32853	1.46305	1.67207
860	859.00000	-0.08711	1.54711	1.96649	-0.31941	1.40958	1.89206	-0.32598	1.48490	1.67218
861	860.00000	-0.08719	1.54865	1.96656	-0.32158	1.41744	1.88855	-0.32325	1.50670	1.67339
862	861.00000	-0.08720	1.54952	1.96628	-0.32400	1.42652	1.88471	-0.32033	1.52904	1.67556
863	862.00000	-0.08716	1.54971	1.96569	-0.32679	1.43724	1.88037	-0.31716	1.55234	1.67859
864	863.00000	-0.08710	1.54935	1.96496	-0.32986	1.44955	1.87560	-0.31375	1.57662	1.68244
865	864.00000	-0.08703	1.54863	1.96431	-0.33296	1.46298	1.87066	-0.31019	1.60134	1.68700
866	865.00000	-0.08693	1.54780	1.96395	-0.33577	1.47674	1.86592	-0.30668	1.62557	1.69207
867	866.00000	-0.08680	1.54709	1.96402	-0.33802	1.49000	1.86178	-0.30345	1.64824	1.69739
868	867.00000	-0.08664	1.54669	1.96452	-0.33959	1.50215	1.85857	-0.30068	1.66845	1.70273
869	868.00000	-0.08645	1.54670	1.96525	-0.34052	1.51302	1.85644	-0.29839	1.68586	1.70791
870	869.00000	-0.08627	1.54713	1.96591	-0.34101	1.52289	1.85538	-0.29642	1.70072	1.71291
871	870.00000	-0.08613	1.54792	1.96617	-0.34127	1.53238	1.85519	-0.29449	1.71386	1.71781
872	871.00000	-0.08608	1.54892	1.96575	-0.34153	1.54219	1.85554	-0.29228	1.72633	1.72275
873	872.00000	-0.08615	1.55000	1.96456	-0.34191	1.55277	1.85609	-0.28960	1.73900	1.72783
874	873.00000	-0.08636	1.55100	1.96269	-0.34241	1.56416	1.85657	-0.28647	1.75227	1.73303
875	874.00000	-0.08667	1.55184	1.96042	-0.34298	1.57593	1.85686	-0.28309	1.76592	1.73822
876	875.00000	-0.08705	1.55251	1.95811	-0.34349	1.58738	1.85696	-0.27982	1.77933	1.74323
877	876.00000	-0.08741	1.55304	1.95607	-0.34381	1.59782	1.85702	-0.27695	1.79175	1.74789
878	877.00000	-0.08772	1.55351	1.95447	-0.34383	1.60686	1.85720	-0.27462	1.80267	1.75218
879	878.00000	-0.08792	1.55399	1.95338	-0.34349	1.61448	1.85762	-0.27276	1.81201	1.75624
880	879.00000	-0.08799	1.55452	1.95273	-0.34278	1.62105	1.85838	-0.27112	1.82009	1.76031
881	880.00000	-0.08795	1.55509	1.95241	-0.34172	1.62705	1.85949	-0.26942	1.82743	1.76467
882	881.00000	-0.08783	1.55567	1.95230	-0.34039	1.63290	1.86091	-0.26744	1.83456	1.76955
883	882.00000	-0.08767	1.55620	1.95235	-0.33892	1.63882	1.86257	-0.26517	1.84175	1.77498
884	883.00000	-0.08753	1.55666	1.95247	-0.33746	1.64475	1.86440	-0.26276	1.84902	1.78087
885	884.00000	-0.08745	1.55707	1.95265	-0.33618	1.65043	1.86631	-0.26049	1.85612	1.78699
886	885.00000	-0.08745	1.55749	1.95282	-0.33521	1.65558	1.86825	-0.25858	1.86270	1.79309
887	886.00000	-0.08753	1.55798	1.95294	-0.33465	1.65992	1.87017	-0.25711	1.86840	1.79898
888	887.00000	-0.08768	1.55860	1.95300	-0.33450	1.66335	1.87206	-0.25591	1.87293	1.80461
889	888.00000	-0.08785	1.55933	1.95300	-0.33469	1.66589	1.87390	-0.25459	1.87616	1.81002
890	889.00000	-0.08802	1.56014	1.95298	-0.33511	1.66770	1.87567	-0.25268	1.87810	1.81536
891	890.00000	-0.08814	1.56093	1.95298	-0.33559	1.66898	1.87734	-0.24981	1.87894	1.82074
892	891.00000	-0.08819	1.56163	1.95306	-0.33601	1.66995	1.87886	-0.24588	1.87892	1.82618
893	892.00000	-0.08817	1.56217	1.95324	-0.33626	1.67074	1.88019	-0.24114	1.87840	1.83158
894	893.00000	-0.08807	1.56253	1.95355	-0.33632	1.67143	1.88131	-0.23615	1.87769	1.83670
895	894.00000	-0.08788	1.56274	1.95396	-0.33619	1.67201	1.88219	-0.23160	1.87708	1.84126
896	895.00000	-0.08763	1.56286	1.95444	-0.33593	1.67245	1.88287	-0.22811	1.87674	1.84501
897	896.00000	-0.08732	1.56295	1.95495	-0.33562	1.67272	1.88338	-0.22600	1.87670	1.84777
898	897.00000	-0.08698	1.56307	1.95544	-0.33534	1.67281	1.88376	-0.22529	1.87690	1.84951
899	898.00000	-0.08663	1.56327	1.95589	-0.33515	1.67273	1.88407	-0.22568	1.87722	1.85029
900	899.00000	-0.08630	1.56355	1.95626	-0.33509	1.67251	1.88433	-0.22674	1.87750	1.85031
901	900.00000	-0.08599	1.56392	1.95654	-0.33517	1.67215	1.88456	-0.22804	1.87762	1.84974
902	901.00000	-0.08571	1.56433	1.95674	-0.33541	1.67163	1.88475	-0.22930	1.87751	1.84879
903	902.00000	-0.08545	1.56474	1.95688	-0.33578	1.67089	1.88489	-0.23040	1.87706	1.84752
904	903.00000	-0.08520	1.56511	1.95703	-0.33625	1.66981	1.88495	-0.23143	1.87619	1.84589
905	904.00000	-0.08496	1.56541	1.95726	-0.33680	1.66826	1.88494	-0.23258	1.87474	1.84371
906	905.00000	-0.08472	1.56565	1.95770	-0.33739	1.66610	1.88486	-0.23407	1.87254	1.84072
907	906.00000	-0.08446	1.56585	1.95843	-0.33798	1.66330	1.88473	-0.23605	1.86948	1.83663
908	907.00000	-0.08417	1.56605	1.95950	-0.33853	1.65993	1.88459	-0.23856	1.86553	1.83132
909	908.00000	-0.08386	1.56628	1.96090	-0.33902	1.65621	1.88445	-0.24149	1.86088	1.82492
910	909.00000	-0.08352	1.56656	1.96250	-0.33940	1.65247	1.88433	-0.24457	1.85592	1.81786
911	910.00000	-0.08319	1.56687	1.96411	-0.33968	1.64910	1.88422	-0.24747	1.85116	1.81079
912	911.00000	-0.08288	1.56716	1.96553	-0.33984	1.64641	1.88411	-0.24983	1.84708	1.80444
913	912.00000	-0.08264	1.56739	1.96661	-0.33992	1.64449	1.88397	-0.25142	1.84396	1.79937
914	913.00000	-0.08248	1.56750	1.96730	-0.33996	1.64320	1.88380	-0.25219	1.84174	1.79577
915	914.00000	-0.08243	1.56746	1.96771	-0.34002	1.64209	1.88358	-0.25234	1.83991	1.79330
916	915.00000	-0.08249	1.56731	1.96809	-0.34014	1.64057	1.88328	-0.25232	1.83771	1.79121
917	916.00000	-0.08263	1.56708	1.96872	-0.34035	1.63806	1.88286	-0.25274	1.83426	1.78847
918	917.00000	-0.08283	1.56686	1.96986	-0.34062	1.63422	1.88226	-0.25420	1.82887	1.78405
919	918.00000	-0.08303	1.56673	1.97164	-0.34091	1.62902	1.88143	-0.25713	1.82122	1.77728
920	919.00000	-0.08321	1.56676	1.97402	-0.34117	1.62281	1.88036	-0.26160	1.81146	1.76798
921	920.00000	-0.08332	1.56696	1.97676	-0.34134	1.61614	1.87910	-0.26730	1.80007	1.75657
922	921.00000	-0.08336	1.56726	1.97953	-0.34142	1.60953	1.87777	-0.27358	1.78766	1.74395
923	922.00000	-0.08334	1.56755	1.98197	-0.34146	1.60324	1.87662	-0.27967	1.77472	1.73131
924	923.00000	-0.08331	1.56766	1.98376	-0.34159	1.59716	1.87595	-0.28492	1.76149	1.71990
925	924.00000	-0.08333	1.56745	1.98476	-0.34195	1.59079	1.87611	-0.28907	1.74791	1.71074
926	925.00000	-0.08344	1.56681	1.98496	-0.34266	1.58348	1.87734	-0.29232	1.73375	1.70442
927	926.00000	-0.08369	1.56574	1.98452	-0.34379	1.57470	1.87975	-0.29524	1.71877	1.70100
928	927.00000	-0.08406	1.56434	1.98368	-0.34526	1.56430	1.88319	-0.29858	1.70292	1.69997
929	928.00000	-0.08453	1.56280	1.98272	-0.34689	1.55262	1.88728	-0.30292	1.68636	1.70038
930	929.00000	-0.08503	1.56130	1.98189	-0.34839	1.54039	1.89144	-0.30852	1.66947	1.70110
931	930.00000	-0.08550	1.56002	1.98132	-0.34945	1.52847	1.89506	-0.31520	1.65268	1.70107
932	931.00000	-0.08589	1.55906	1.98106	-0.34979	1.51753	1.89762	-0.32242	1.63630	1.69957
933	932.00000	-0.08619	1.55839	1.98105	-0.34924	1.50783	1.89885	-0.32950	1.62031	1.69636
934	933.00000	-0.08643	1.55792	1.98116	-0.34778	1.49918	1.89880	-0.33585	1.60444	1.69167
935	934.00000	-0.08664	1.55753	1.98128	-0.34550	1.49106	1.89776	-0.34112	1.58817	1.68608
936	935.00000	-0.08688	1.55710	1.98132	-0.34262	1.48292	1.89619	-0.34525	1.57105	1.68029
937	936.00000	-0.08719	1.55660	1.98125	-0.33942	1.47441	1.89456	-0.34842	1.55285	1.67494
938	937.00000	-0.08755	1.55604	1.98111	-0.33618	1.46556	1.89318	-0.35096	1.53372	1.67045
939	938.00000	-0.08796	1.55552	1.98097	-0.33308	1.45674	1.89220	-0.35321	1.51409	1.66700
940	939.00000	-0.08836	1.55510	1.98091	-0.33024	1.44842	1.89160	-0.35549	1.49456	1.66459
941	940.00000	-0.08875	1.55483	1.98100	-0.32765	1.44093	1.89131	-0.35798	1.47562	1.66315
942	941.00000	-0.08913	1.55464	1.98119	-0.32518	1.43427	1.89133	-0.36078	1.45751	1.66265
943	942.00000	-0.08956	1.55442	1.98138	-0.32269	1.42802	1.89174	-0.36378	1.44013	1.66317
944	943.00000	-0.09011	1.55401	1.98140	-0.32000	1.42152	1.89270	-0.36674	1.42311	1.66484
945	944.00000	-0.09087	1.55332	1.98110	-0.31704	1.41416	1.89445	-0.36923	1.40600	1.66778
946	945.00000	-0.09187	1.55234	1.98038	-0.31383	1.40561	1.89716	-0.37077	1.38847	1.67201
947	946.00000	-0.09310	1.55119	1.97923	-0.31048	1.39603	1.90090	-0.37088	1.37048	1.67744
948	947.00000	-0.09450	1.55006	1.97780	-0.30715	1.38598	1.90560	-0.36928	1.35222	1.68383
949	948.00000	-0.09599	1.54915	1.97627	-0.30398	1.37619	1.91103	-0.36600	1.33409	1.69092
950	949.00000	-0.09753	1.54853	1.97482	-0.30095	1.36725	1.91683	-0.36145	1.31644	1.69843
951	950.00000	-0.09909	1.54813	1.97359	-0.29793	1.35936	1.92259	-0.35635	1.29945	1.70615
952	951.00000	-0.10070	1.54777	1.97259	-0.29471	1.35232	1.92790	-0.35156	1.28307	1.71395
953	952.00000	-0.10240	1.54720	1.97177	-0.29112	1.34566	1.93242	-0.34786	1.26708	1.72172
954	953.00000	-0.10424	1.54622	1.97102	-0.28713	1.33894	1.93598	-0.34571	1.25132	1.72938
955	954.00000	-0.10620	1.54477	1.97025	-0.28288	1.33197	1.93855	-0.34514	1.23578	1.73682
956	955.00000	-0.10822	1.54295	1.96940	-0.27868	1.32487	1.94032	-0.34571	1.22068	1.74394
957	956.00000	-0.11021	1.54098	1.96848	-0.27488	1.31802	1.94164	-0.34668	1.20641	1.75073
958	957.00000	-0.11208	1.53914	1.96753	-0.27170	1.31189	1.94298	-0.34717	1.19332	1.75733
959	958.00000	-0.11379	1.53765	1.96660	-0.26920	1.30681	1.94478	-0.34643	1.18157	1.76404
960	959.00000	-0.11533	1.53665	1.96572	-0.26721	1.30284	1.94740	-0.34402	1.17102	1.77126
961	960.00000	-0.11677	1.53611	1.96489	-0.26539	1.29979	1.95097	-0.33987	1.16123	1.77937
962	961.00000	-0.11818	1.53588	1.96407	-0.26334	1.29723	1.95541	-0.33426	1.15161	1.78862
963	962.00000	-0.11968	1.53571	1.96318	-0.26071	1.29467	1.96043	-0.32766	1.14165	1.79899
964	963.00000	-0.12131	1.53537	1.96216	-0.25733	1.29173	1.96566	-0.32062	1.13106	1.81024
965	964.00000	-0.12309	1.53471	1.96098	-0.25326	1.28822	1.97073	-0.31363	1.11990	1.82201
966	965.00000	-0.12500	1.53369	1.95966	-0.24878	1.28428	1.97539	-0.30712	1.10855	1.83399
967	966.00000	-0.12697	1.53241	1.95829	-0.24428	1.28020	1.97951	-0.30136	1.09755	1.84606
968	967.00000	-0.12895	1.53102	1.95695	-0.24018	1.27640	1.98313	-0.29650	1.08740	1.85833
969	968.00000	-0.13094	1.52971	1.95575	-0.23676	1.27320	1.98638	-0.29252	1.07842	1.87105
970	969.00000	-0.13297	1.52855	1.95474	-0.23413	1.27072	1.98940	-0.28929	1.07064	1.88443
971	970.00000	-0.13511	1.52756	1.95390	-0.23216	1.26885	1.99234	-0.28656	1.06386	1.89846
972	971.00000	-0.13740	1.52663	1.95318	-0.23062	1.26733	1.99535	-0.28406	1.05779	1.91283
973	972.00000	-0.13988	1.52560	1.95251	-0.22923	1.26585	1.99853	-0.28151	1.05218	1.92698
974	973.00000	-0.14250	1.52435	1.95182	-0.22779	1.26419	2.00202	-0.27874	1.04692	1.94031
975	974.00000	-0.14516	1.52282	1.95109	-0.22623	1.26231	2.00593	-0.27560	1.04207	1.95242
976	975.00000	-0.14772	1.52103	1.95028	-0.22460	1.26036	2.01037	-0.27204	1.03779	1.96323
977	976.00000	-0.15005	1.51910	1.94941	-0.22306	1.25860	2.01536	-0.26805	1.03428	1.97307
